<?xml version="1.0" standalone="no"?>
<!DOCTYPE svg PUBLIC "-//W3C//DTD SVG 20010904//EN"
 "http://www.w3.org/TR/2001/REC-SVG-20010904/DTD/svg10.dtd">
<svg version="1.0" xmlns="http://www.w3.org/2000/svg"
 width="512.000000pt" height="512.000000pt" viewBox="0 0 512.000000 512.000000"
 preserveAspectRatio="xMidYMid meet">

<g transform="translate(0.000000,512.000000) scale(0.100000,-0.100000)"
fill="#000000" stroke="none">
<path d="M1258 4620 c-291 -53 -524 -270 -604 -561 -27 -99 -25 -281 4 -384
38 -130 95 -228 192 -326 96 -97 185 -154 305 -195 72 -25 94 -28 225 -28 125
-1 155 2 220 22 150 47 281 134 373 247 62 77 133 222 152 311 19 91 19 248
-1 337 -59 263 -277 490 -539 562 -70 19 -259 28 -327 15z"/>
<path d="M594 3110 c-287 -40 -520 -258 -578 -543 -14 -66 -16 -203 -16 -1077
l0 -1000 730 0 730 0 0 415 0 415 -38 0 c-60 0 -136 27 -190 68 -40 30 -540
566 -634 680 -32 38 -34 54 -12 76 38 39 50 28 373 -324 171 -187 328 -351
349 -365 21 -14 63 -30 94 -35 86 -16 1881 -8 1930 8 94 32 179 131 196 229
25 144 -44 275 -177 337 -46 21 -55 21 -967 24 l-922 3 -5 242 c-5 276 -11
309 -84 457 -86 176 -256 315 -452 369 -85 23 -239 33 -327 21z"/>
<path d="M4943 3089 c-56 -16 -76 -55 -169 -325 -48 -143 -178 -522 -289 -844
l-200 -585 -1050 -5 c-842 -4 -1055 -8 -1073 -18 -59 -34 -79 -127 -42 -187
43 -69 -31 -65 1187 -65 1052 0 1100 1 1133 19 19 10 43 31 52 47 26 44 620
1783 625 1829 9 89 -83 161 -174 134z"/>
<path d="M1579 921 l-39 -39 0 -94 c0 -81 3 -99 21 -122 47 -60 -67 -56 1664
-56 l1585 0 0 175 0 175 -1596 0 -1596 0 -39 -39z"/>
</g>
</svg>
