<?xml version="1.0" standalone="no"?>
<!DOCTYPE svg PUBLIC "-//W3C//DTD SVG 20010904//EN"
 "http://www.w3.org/TR/2001/REC-SVG-20010904/DTD/svg10.dtd">
<svg version="1.0" xmlns="http://www.w3.org/2000/svg"
 width="512.000000pt" height="512.000000pt" viewBox="0 0 512.000000 512.000000"
 preserveAspectRatio="xMidYMid meet">

<g transform="translate(0.000000,512.000000) scale(0.100000,-0.100000)"
fill="#000000" stroke="none">
<path d="M1755 5110 c-600 -95 -1025 -591 -1025 -1198 0 -72 1 -74 23 -68 12
3 32 6 43 6 18 0 22 8 27 45 16 115 103 212 221 246 416 119 615 212 776 364
93 87 106 87 205 -4 162 -151 348 -237 771 -360 118 -34 205 -131 221 -246 5
-37 9 -45 27 -45 11 0 32 -3 45 -7 l24 -6 -6 124 c-3 68 -13 160 -22 204 -96
462 -447 822 -905 926 -99 23 -333 33 -425 19z"/>
<path d="M1870 4304 c-154 -123 -383 -227 -680 -310 -69 -20 -133 -43 -144
-52 -18 -17 -46 -71 -46 -92 0 -7 294 -10 920 -10 626 0 920 3 920 10 0 21
-28 75 -46 92 -11 9 -75 32 -144 52 -301 84 -556 202 -688 317 -18 16 -36 29
-40 29 -4 0 -27 -16 -52 -36z"/>
<path d="M753 3633 c-32 -49 -23 -134 25 -239 52 -115 72 -185 82 -292 7 -78
10 -88 37 -112 17 -15 48 -30 72 -34 64 -10 110 -59 155 -163 134 -312 323
-599 483 -735 251 -213 480 -179 737 111 117 133 273 393 372 624 45 104 91
153 155 163 24 4 55 19 72 34 27 24 30 34 37 112 10 107 30 177 82 292 48 105
57 190 25 239 l-17 27 -165 0 -165 0 0 -163 c0 -193 -11 -239 -74 -302 -77
-77 -92 -80 -341 -80 -216 0 -221 0 -275 26 -31 14 -73 41 -93 59 l-37 32 -37
-32 c-20 -18 -62 -45 -93 -59 -53 -25 -63 -26 -264 -29 l-209 -3 -63 31 c-128
63 -154 124 -154 357 l0 163 -165 0 -165 0 -17 -27z"/>
<path d="M1280 3506 c0 -149 1 -156 24 -183 l24 -28 163 -3 c191 -4 232 4 282
57 47 49 57 86 57 207 l0 104 -275 0 -275 0 0 -154z"/>
<path d="M2010 3556 c0 -121 10 -158 57 -207 50 -53 91 -61 282 -57 l163 3 24
28 c23 27 24 34 24 183 l0 154 -275 0 -275 0 0 -104z"/>
<path d="M730 2380 l0 -512 28 6 c28 6 195 35 247 42 29 4 32 10 98 187 37
100 67 187 67 193 0 6 -23 51 -51 100 -56 96 -132 248 -166 331 -20 48 -24 52
-75 67 -35 10 -72 31 -101 57 l-47 41 0 -512z"/>
<path d="M3061 2848 c-28 -24 -66 -45 -100 -55 l-56 -17 -44 -100 c-24 -56
-77 -162 -117 -236 -41 -73 -74 -139 -74 -146 0 -11 106 -299 119 -322 5 -8
28 14 69 66 61 78 142 159 215 217 l37 30 -2 301 -3 302 -44 -40z"/>
<path d="M3791 2369 c-552 -68 -980 -506 -1042 -1063 -50 -452 182 -906 586
-1144 97 -57 201 -99 325 -129 91 -23 127 -27 265 -27 120 -1 181 4 245 18
471 102 817 448 927 928 26 114 23 376 -5 493 -33 132 -86 262 -147 360 -70
111 -80 124 -178 223 -167 170 -394 289 -631 331 -87 16 -261 21 -345 10z
m765 -468 c23 -10 54 -36 70 -57 l29 -37 0 -527 0 -527 -29 -37 c-45 -59 -92
-76 -218 -76 l-108 0 0 -90 0 -90 53 0 c69 0 114 -27 122 -73 10 -50 -16 -93
-63 -107 -25 -8 -186 -10 -504 -8 l-468 3 -27 27 c-37 37 -37 89 0 125 22 23
37 28 92 31 l65 4 0 88 0 88 -123 4 c-114 3 -127 5 -164 30 -25 16 -49 44 -62
71 -21 44 -22 50 -19 549 l3 504 27 41 c15 23 44 49 70 62 42 21 50 21 628 21
550 0 587 -2 626 -19z"/>
<path d="M3380 1465 l0 -275 118 0 117 1 195 261 c107 143 199 267 203 274 7
12 -45 14 -313 14 l-320 0 0 -275z"/>
<path d="M4046 1465 l-206 -275 320 0 320 0 0 275 0 275 -114 0 -114 0 -206
-275z"/>
<path d="M3387 1003 c-4 -3 -7 -46 -7 -95 l0 -88 550 0 550 0 0 95 0 95 -543
0 c-299 0 -547 -3 -550 -7z"/>
<path d="M3750 550 l0 -90 180 0 180 0 0 90 0 90 -180 0 -180 0 0 -90z"/>
<path d="M1296 2100 c-3 -8 -28 -73 -55 -145 l-48 -130 24 -49 c109 -217 445
-343 817 -308 290 28 496 134 583 299 l31 58 -52 137 c-29 75 -54 140 -57 143
-3 3 -37 -29 -74 -72 -38 -42 -103 -103 -143 -135 -314 -249 -633 -205 -942
131 -55 59 -81 81 -84 71z"/>
<path d="M785 1691 c-279 -82 -534 -283 -672 -531 -42 -75 -88 -210 -102 -297
-7 -43 -11 -218 -11 -438 l0 -367 29 -29 29 -29 432 0 431 0 -24 33 c-60 80
-397 557 -416 588 -27 45 -28 117 0 170 14 29 39 52 85 81 35 22 64 41 64 43
0 1 -27 19 -59 39 -64 39 -95 80 -106 137 -13 71 5 103 215 363 110 137 200
251 200 253 0 7 -38 1 -95 -16z"/>
<path d="M845 1370 c-104 -131 -191 -242 -192 -247 -2 -4 24 -25 57 -45 89
-55 122 -125 100 -207 -14 -53 -43 -87 -112 -130 l-57 -37 251 -352 252 -352
104 0 104 0 -5 28 c-3 15 -72 377 -153 805 -82 427 -151 777 -154 777 -3 -1
-90 -108 -195 -240z"/>
<path d="M2504 1416 c-85 -50 -230 -102 -340 -121 -107 -19 -377 -19 -486 0
-108 19 -242 65 -336 117 -41 22 -75 38 -77 36 -2 -3 256 -1369 270 -1426 l5
-22 380 0 c352 0 379 1 384 18 3 9 66 330 141 712 74 382 137 703 139 713 5
23 3 22 -80 -27z"/>
<path d="M2566 394 c-38 -192 -70 -359 -73 -371 -5 -23 -4 -23 99 -23 l104 0
51 72 c28 40 74 105 102 144 l50 70 -70 93 c-58 78 -145 236 -186 340 -7 20
-23 -47 -77 -325z"/>
<path d="M2973 75 l-52 -75 159 0 c88 0 160 2 160 4 0 2 -20 16 -45 31 -25 14
-70 46 -100 71 -30 24 -58 44 -62 44 -5 0 -32 -34 -60 -75z"/>
</g>
</svg>
